<?xml version="1.0" encoding="UTF-8" standalone="no"?>
<svg width="42px" height="42px" viewBox="0 0 42 42" version="1.1" xmlns="http://www.w3.org/2000/svg" xmlns:xlink="http://www.w3.org/1999/xlink" xmlns:sketch="http://www.bohemiancoding.com/sketch/ns">
    <!-- Generator: Sketch 3.3.1 (12005) - http://www.bohemiancoding.com/sketch -->
    <title>fb</title>
    <desc>Created with Sketch.</desc>
    <defs></defs>
    <g id="Page-1" stroke="none" stroke-width="1" fill="none" fill-rule="evenodd" sketch:type="MSPage">
        <g id="Login" sketch:type="MSArtboardGroup" transform="translate(-729.000000, -224.000000)" fill="#FFFFFF">
            <g id="Connect-FB" sketch:type="MSLayerGroup" transform="translate(720.000000, 215.000000)">
                <path d="M12.1985075,10 C10.9841791,10 10,10.9840299 10,12.1985075 L10,47.6364179 C10,48.850597 10.9841791,49.8349254 12.1985075,49.8349254 L31.2770149,49.8349254 L31.2770149,34.408806 L26.0858209,34.408806 L26.0858209,28.3968657 L31.2770149,28.3968657 L31.2770149,23.9632836 C31.2770149,18.8180597 34.4195522,16.0164179 39.009403,16.0164179 C41.2079104,16.0164179 43.0976119,16.1801493 43.648209,16.2532836 L43.648209,21.6302985 L40.4649254,21.631791 C37.9686567,21.631791 37.4853731,22.8179104 37.4853731,24.5585075 L37.4853731,28.3968657 L43.4386567,28.3968657 L42.6634328,34.408806 L37.4853731,34.408806 L37.4853731,49.8349254 L47.6364179,49.8349254 C48.850597,49.8349254 49.8349254,48.850597 49.8349254,47.6364179 L49.8349254,12.1985075 C49.8349254,10.9840299 48.850597,10 47.6364179,10 L12.1985075,10 Z" id="Imported-Layers" sketch:type="MSShapeGroup"></path>
            </g>
        </g>
    </g>
</svg>